<svg width="52" height="52" viewBox="0 0 52 52" fill="none" xmlns="http://www.w3.org/2000/svg">
<mask id="path-1-inside-1_64_1294" fill="white">
<path fill-rule="evenodd" clip-rule="evenodd" d="M39 0H26V13H13H0V26V39V52H13H26V39H39H52V26V13V0H39ZM26 26H13V39H26V26ZM39 26H26V13H39V26Z"/>
</mask>
<path d="M26 0V-1H25V0H26ZM0 13V12H-1V13H0ZM0 52H-1V53H0V52ZM26 52V53H27V52H26ZM52 39V40H53V39H52ZM52 0H53V-1H52V0ZM13 26V25H12V26H13ZM13 39H12V40H13V39ZM39 26V27H40V26H39ZM39 13H40V12H39V13ZM26 1H39V-1H26V1ZM27 13V0H25V13H27ZM13 14H26V12H13V14ZM0 14H13V12H0V14ZM1 26V13H-1V26H1ZM1 39V26H-1V39H1ZM1 52V39H-1V52H1ZM13 51H0V53H13V51ZM26 51H13V53H26V51ZM25 39V52H27V39H25ZM39 38H26V40H39V38ZM52 38H39V40H52V38ZM51 26V39H53V26H51ZM51 13V26H53V13H51ZM51 0V13H53V0H51ZM39 1H52V-1H39V1ZM26 25H13V27H26V25ZM12 26V39H14V26H12ZM13 40H26V38H13V40ZM27 39V26H25V39H27ZM26 27H39V25H26V27ZM25 13V26H27V13H25ZM39 12H26V14H39V12ZM40 26V13H38V26H40Z" fill="#C778DD" mask="url(#path-1-inside-1_64_1294)"/>
</svg>
